<?xml version="1.0" encoding="UTF-8" standalone="no"?>

<svg
   version="1.1"
   id="svg1"
   width="294.72009"
   height="221.09064"
   viewBox="0 0 294.72009 221.09064"
   xmlns="http://www.w3.org/2000/svg">
  <defs
     id="defs1" />
  <title>NHS England - Logo - Blue - Right-Aligned</title>
  <g
     id="g1"
     transform="translate(-777.79719,-215.18135)">
    <g
       id="group-R5">
      <g
         id="g8">
        <path
           id="path2"
           d="m 5956.56,3523.02 h 2032.78 v 786.91 H 5956.56 v -786.91"
           style="fill:#ffffff;fill-opacity:1;fill-rule:nonzero;stroke:none"
           transform="matrix(0.13333333,0,0,-0.13333333,0,793.70667)" />
        <path
           id="path3"
           d="M 8043.88,4338.94 H 5932.07 v -850.39 h 2111.81 z m -1262.73,-82.05 -145.79,-684.48 h -228.78 l -143.83,473.63 h -1.93 l -95.69,-473.63 h -173.5 l 146.95,684.48 h 229.56 l 140.99,-474.64 h 1.94 l 96.59,474.64 z m 654.34,0 -142.93,-684.48 h -184.23 l 61.1,293.16 h -217.9 l -61.11,-293.16 h -184.24 l 142.95,684.48 h 184.23 l -54.12,-261.86 h 217.79 l 54.23,261.86 z m 529.29,-18.67 -44.41,-136.29 c -35.47,16.63 -83.78,31.31 -151.74,31.31 -72.89,0 -132.07,-10.68 -132.07,-65.69 0,-97 267.1,-60.8 267.1,-268.7 0,-189.21 -176.47,-238.3 -336.11,-238.3 -70.94,0 -152.78,16.77 -212.84,35.43 l 43.37,139.24 c 36.38,-23.57 109.41,-39.29 169.47,-39.29 57.24,0 146.82,10.83 146.82,81.41 0,109.87 -267.09,68.66 -267.09,261.74 0,176.6 155.77,229.54 306.57,229.54 84.82,0 164.59,-8.89 210.93,-30.4"
           style="fill:#005eb8;fill-opacity:1;fill-rule:nonzero;stroke:none"
           transform="matrix(0.13333333,0,0,-0.13333333,0,793.70667)" />
      </g>
      <path
         style="font-weight:bold;font-size:80px;font-family:'Frutiger 65';fill:#231f20;stroke-width:1.33333"
         d="m 777.7972,418.51199 h 33.12 v -8.8 h -21.92 v -15.68 h 19.92 v -8.8 h -19.92 v -13.76 h 21.76 v -8.8 h -32.96 z m 43.51998,0 h 10.72 v -20.16 c 0,-5.28 1.68,-13.68 9.44,-13.68 6.88,0 6.96,6.8 6.96,11.84 v 22 h 10.72 v -26 c 0,-9.28 -4.24,-16.16 -14,-16.16 -5.6,0 -10.16,1.84 -13.52,6.56 h -0.16 v -5.6 h -10.16 z m 66.56001,-8.32 c -6.16,0 -9.12,-6.88 -9.12,-12.48 0,-6.32 2.32,-13.04 9.6,-13.04 6.24,0 8.96,5.76 8.96,12.8 0,6.88 -2.72,12.72 -9.44,12.72 z m 9.92,-32.88 v 5.6 h -0.16 c -2.96,-4.72 -7.2,-6.56 -12.64,-6.56 -12.32,0 -17.44,11.44 -17.44,21.36 0,11.04 4.64,20.8 16.8,20.8 6,0 10.8,-3.04 12.8,-6.56 h 0.16 c 0,7.12 -0.56,16 -12.4,16 -3.36,0 -8.72,-1.84 -12,-3.6 l -0.88,9.12 c 5.12,2.16 10,2.8 14.24,2.8 17.28,0 21.76,-10.56 21.76,-21.76 v -37.2 z m 21.52,41.2 h 10.72 v -60 h -10.72 z m 24.15999,-29.84 c 3.6,-2.72 8.16,-4.48 12.72,-4.48 6.32,0 9.28,2.24 9.28,8.88 h -5.92 c -4.48,0 -9.76,0.4 -13.84,2.4 -4.08,2 -7.04,5.6 -7.04,11.76 0,7.84 7.12,12.24 14.4,12.24 4.88,0 10.24,-2.56 12.72,-7.12 h 0.16 c 0.08,1.28 0.08,4 0.48,6.16 h 9.44 c -0.24,-3.2 -0.4,-6.08 -0.48,-9.2 -0.08,-3.04 -0.16,-6.16 -0.16,-10.32 v -5.28 c 0,-12.16 -5.2,-17.36 -17.76,-17.36 -4.56,0 -10.16,1.2 -14.32,3.12 z m 5.44,17.92 c 0,-6.32 7.12,-7.12 11.92,-7.12 h 4.64 c 0,3.2 -0.48,6.16 -2.24,8.48 -1.68,2.24 -4.24,3.68 -7.52,3.68 -3.84,0 -6.8,-1.52 -6.8,-5.04 z m 36.87998,11.92 h 10.72 v -20.16 c 0,-5.28 1.68,-13.68 9.44004,-13.68 6.88,0 6.96,6.8 6.96,11.84 v 22 h 10.72 v -26 c 0,-9.28 -4.24,-16.16 -14,-16.16 -5.6,0 -10.16004,1.84 -13.52004,6.56 h -0.16 v -5.6 h -10.16 z m 57.44004,-20.72 c 0,-5.52 1.92,-13.12 8.88,-13.12 6.88,0 9.6,7.36 9.6,13.12 0,5.84 -2.32,13.36 -9.44,13.36 -7.04,0 -9.04,-7.68 -9.04,-13.36 z m 18.88,20.72 h 10.4 v -60 h -10.72 v 23.6 h -0.16 c -3.2,-3.92 -6.96,-5.76 -12.32,-5.76 -12.64,0 -17.28,10.08 -17.28,21.44 0,11.28 4.64,21.68 17.28,21.68 5.04,0 9.44,-1.6 12.64,-5.6 h 0.16 z"
         id="text3"
         aria-label="England" />
    </g>
  </g>
</svg>
